<svg id="Capa_1" enable-background="new 0 0 512 512" height="512" viewBox="0 0 512 512" width="512" xmlns="http://www.w3.org/2000/svg"><g><circle cx="190.181" cy="70" r="70"/><path d="m285.934 498.066c-13.766-13.766-24.577-29.805-32.134-47.67-7.83-18.512-11.8-38.159-11.8-58.396s3.97-39.884 11.8-58.396c7.557-17.865 18.368-33.904 32.134-47.67s29.805-24.577 47.67-32.134c6.504-2.751 13.15-5.014 19.91-6.808-10.499-44.57-50.428-76.992-97.3-76.992h-132.067c-51.121 0-94.011 38.556-99.435 89.389l-24.597 230.489c-1.261 11.818 8.002 22.122 19.887 22.122h281.975c-5.638-4.239-10.995-8.886-16.043-13.934z"/><path d="m392 272c-66.274 0-120 53.726-120 120s53.726 120 120 120 120-53.726 120-120-53.726-120-120-120zm59.898 95.046-71.121 71.121c-2.929 2.929-6.768 4.394-10.606 4.394s-7.678-1.465-10.606-4.394l-27.463-27.463c-5.858-5.857-5.858-15.355 0-21.213 5.857-5.857 15.355-5.857 21.213 0l16.856 16.856 60.515-60.515c5.857-5.857 15.355-5.857 21.213 0 5.858 5.858 5.858 15.356-.001 21.214z"/></g></svg>